# xmcd CD database file
#
# Track frame offsets:
#	150
#	12438
#	23955
#	36610
#	54719
#	66398
#	76733
#	90804
#	103960
#	116386
#
# Disc length: 1723 seconds
#
# Revision: 1
# Processed by: cddbd v1.5.2PL0 Copyright (c) Steve Scherf et al.
# Submitted via: CDex 1.51
#
DISCID=7e06b90a
DTITLE=Freddy Fender - Freddy Fender - Country Hit Parade
DYEAR=2008
DGENRE=Country
TTITLE0=Wasted Days and Wasted Nights
TTITLE1=Before The Next Teardrop Falls
TTITLE2=You'll Lose a Good Thing (Spanish Version)
TTITLE3=Secret Love
TTITLE4=Living It Down (Spanish Version)
TTITLE5=Sugar Coated Love (Live)
TTITLE6=The Rains Came (Live)
TTITLE7=Since I met You Baby
TTITLE8=Vaya Con Dios
TTITLE9=Talk to Me
EXTD=YEAR: 2008
EXTT0=
EXTT1=
EXTT2=
EXTT3=
EXTT4=
EXTT5=
EXTT6=
EXTT7=
EXTT8=
EXTT9=
PLAYORDER=
